<svg xmlns="http://www.w3.org/2000/svg" width="1024" height="1024"><path d="M0 0h1024v1024H0z"/><path fill="#fefefe" d="M387 178a285 285 0 0 1 8.063 20.688c1.76 5.084 3.61 10.024 5.882 14.906 1.436 3.276 2.682 6.618 3.93 9.969l.771 2.07q1.572 4.237 3.129 8.478c2.793 7.608 5.69 15.089 9.135 22.432 1.367 3.081 2.4 6.216 3.418 9.426.792 2.394 1.782 4.683 2.802 6.988 1.123 2.637 2.143 5.307 3.167 7.984l1.343 3.506L430 288l2.43 6.324 1.21 3.15q3.177 8.264 6.36 16.526l1.058 2.748c3.163 8.205 6.351 16.388 9.801 24.479 1.124 2.73 2.167 5.485 3.195 8.252 1.196 3.188 2.421 6.364 3.645 9.54l2.227 5.81q.766 1.998 1.54 3.994 1.121 2.909 2.233 5.822l1.339 3.48C466 381 466 381 466 384h2l.48 1.8c1.284 4.561 2.736 8.855 4.77 13.137 3.044 6.478 5.418 13.163 7.86 19.883a1105 1105 0 0 0 5.952 15.93l1.01 2.653a609 609 0 0 0 4.768 12.152l.853 2.098q1.131 2.759 2.276 5.511C497 460 497 460 497 463l5-1v-2l7-1v-2l3.594-1.32 4.906-1.805 2.615-.96a978 978 0 0 0 12.147-4.54c8.531-3.266 17.11-6.2 25.863-8.813 1.731-.519 3.458-1.052 5.184-1.585 11.068-3.322 22.373-5.675 33.691-7.977l2.748-.582c6.647-1.329 13.043-1.767 19.814-1.73l3.145.008c9.334.125 18.18 1.382 27.293 3.304l2.754.504c5.712 1.103 10.937 3.145 16.246 5.496l2.469 1.09c6.78 3.186 12.634 7.316 18.531 11.91l2.191 1.648c6.015 4.827 9.8 10.834 13.809 17.352l1.179 1.88a755 755 0 0 1 3.634 5.87l1.13 1.822c2.6 4.318 4.375 8.689 6.057 13.428a452 452 0 0 0 2.25 5.375c8.336 19.877 15.969 40.168 22.75 60.625l1.5 4.5c3 9 3 9 3.744 11.237a1106 1106 0 0 0 1.559 4.632 196 196 0 0 1 4.353 14.858c.825 2.71 1.915 5.214 3.054 7.804 1.519 3.786 2.523 7.728 3.602 11.657l1.579 5.613.806 2.87c2.918 10.284 5.984 20.52 9.428 30.641 2.05 6.05 3.747 12.139 5.348 18.32 1.063 4.068 2.258 8.091 3.465 12.118 2.123 7.098 4.043 14.238 5.863 21.419.776 3.024 1.532 5.924 2.719 8.815 1.161 2.98 1.79 5.943 2.453 9.067.893 4.152 1.934 8.267 2.965 12.386l.665 2.668a282 282 0 0 0 4.272 15.223C801.915 757.18 803 762.43 803 768h2l.38 1.734c2.36 10.724 4.755 21.405 7.92 31.926 1.802 6.151 2.618 11.848 3.7 18.34H706l-4-18-2-4a108 108 0 0 1-1.332-5.375l-.722-3.202-.759-3.423q-.809-3.57-1.62-7.137l-.809-3.556c-3.542-15.448-7.744-30.716-11.988-45.983l-.936-3.366a390 390 0 0 0-2.072-7.063C679 716 679 716 679 712h-2l-.629-2.656c-2.81-11.566-6.103-22.97-9.49-34.378q-1.233-4.157-2.455-8.318a728 728 0 0 0-8.315-26.35 535 535 0 0 1-7.326-23.525c-1.978-6.88-4-13.581-6.773-20.191-1.739-4.436-3.061-9.007-4.461-13.559-1.98-6.436-4.01-12.856-6.051-19.273l-1.114-3.55c-3.838-14.09-3.838-14.09-11.386-26.2-7.5-.944-15.564 2.061-22.625 4.313l-2.945.896c-5.284 1.644-10.32 3.53-15.344 5.847-3.219 1.457-6.52 2.668-9.836 3.881l-4.152 1.536-2.07.766c-1.956.734-3.901 1.49-5.844 2.257l-3.496 1.379-3.114 1.242C547 557 547 557 544 557v2l-10 3q1.65 5.033 3.313 10.063l.935 2.857c1.304 3.939 2.628 7.792 4.264 11.607 2.336 5.45 4.057 11.097 5.883 16.735 1.276 3.895 2.548 7.743 4.203 11.496 1.373 3.174 2.384 6.296 3.34 9.617 1.15 3.842 2.355 7.496 4.062 11.125 2.172 4.616 3.564 9.393 4.973 14.29 1.126 3.518 2.555 6.822 4.027 10.21 4.4 11.726 7.414 23.76 10 36l.51 2.407c3.873 19.041 4.058 38.673-.51 57.593l-.52 2.24c-2.534 10.716-6.11 20.134-11.48 29.76h-2l-.656 2.078c-1.738 3.778-4.119 6.56-6.844 9.672l-1.631 1.872c-8.26 9.341-17.027 16.192-27.869 22.378l-2.957 1.691c-8.466 4.725-16.996 8.546-26.293 11.309l-2.595.772c-43.3 12.482-89.601 11.504-133.58 3.67-3.413-.586-6.83-1.052-10.262-1.505C331.099 836.95 310.176 830.036 290 823v-2l-3-.25c-4.523-.653-8.016-2.61-12-4.75l-2.238-1.059c-14.078-6.658-28.105-15.823-38.067-27.902-1.918-2.307-3.961-4.47-6.007-6.664-2.945-3.286-4.782-5.957-5.688-10.375h-2a1522 1522 0 0 1-3.5-8.75l-1.012-2.5-.957-2.422-.888-2.222C214 752 214 752 214 748h-2c-3.195-14.198-4.418-27.995-4.437-42.5l-.018-2.273c-.168-31.343 10.724-60 30.455-84.227l1.766-2.324C250.38 603.03 263.23 590.44 277 580l3.023-2.398c7.422-5.868 15.143-11.171 23.061-16.343a598 598 0 0 0 5.744-3.83c6.913-4.654 13.88-9.174 21.004-13.503a638 638 0 0 0 6.305-3.883c6.611-4.123 13.307-8.025 20.112-11.817 4.6-2.566 9.136-5.22 13.642-7.949 4.593-2.781 9.09-5.325 14.109-7.277l3-2h3v-2c3-2 3-2 6-2q-1.4-3.815-2.812-7.625l-.792-2.16c-1.567-4.22-3.357-8.195-5.396-12.215a76 76 0 0 1-1.312-4c-1.247-3.894-2.782-7.575-4.438-11.312-2.95-6.743-5.39-13.603-7.714-20.584a92 92 0 0 0-5.617-13.214c-1.423-2.926-2.339-5.972-3.294-9.077-1.54-4.848-3.277-9.412-5.5-14-3.047-6.345-5.313-12.853-7.585-19.501-2.25-6.562-4.775-12.949-7.54-19.312-6.026-14.247-11.884-28.547-16.915-43.178a132 132 0 0 0-5.91-14.232c-1.26-2.78-2.327-5.593-3.383-8.455-1.322-3.563-2.72-7.096-4.104-10.635-2.568-6.58-5.083-13.18-7.554-19.797-6.11-16.575-6.11-16.575-13.009-32.828-1.918-4.278-3.635-8.624-5.312-13l-.795-2.028c-1.625-4.298-2.525-8.276-3.018-12.847 8.225-3.637 16.443-6.974 24.941-9.922 1.945-.685 3.873-1.42 5.774-2.219C317 204 317 204 320 204v-2c3.62-1.316 6.096-2 10-2v-2l2.013-.747c15.792-5.844 15.792-5.844 31.382-12.198 3.908-1.582 7.9-2.877 11.914-4.16 2.704-.857 2.704-.857 5.289-2.008C383 178 383 178 387 178"/><path fill="#010101" d="M433 600c3.908 7.248 6.864 14.682 9.622 22.434a1677 1677 0 0 0 3.593 9.964l.72 1.988c2.035 5.585 4.2 11.11 6.44 16.614a424 424 0 0 1 7.61 20.11 192 192 0 0 0 2.577 6.89c3.11 8.242 6.08 17.153 6.438 26l.156 3.758c.455 16.18.455 16.18-5.656 23.054L462 733l-1.376 1.501c-8.265 7.629-21.622 6.04-31.999 5.874l-5.427-.05c-25.74-.299-50.324-3.109-74.198-13.325l-2.852-1.21c-11.099-5.121-20.7-13.148-25.312-24.708-2.792-10.295-.496-19.761 4.164-29.082h2l.688-2.687c1.523-3.845 3.3-5.507 6.312-8.313q1.357-1.646 2.688-3.312c3.832-4.543 8.434-8.31 13.312-11.688h2v-2a121 121 0 0 1 6.688-4.625l2.055-1.347c6.343-4.134 12.778-8.11 19.257-12.028l2.61-1.617c5.198-3.195 10.505-5.997 15.984-8.68 4.03-2.015 7.996-4.138 11.969-6.265C428.278 600 428.278 600 433 600"/><path fill="#1f1f1f" d="M433 600c1.813 2.25 1.813 2.25 3 5-.812 2.313-.812 2.313-2 4-2-3-2-3-2-5l-6-1c1.596-3.191 3.64-3 7-3"/><path fill="#2e2e2e" d="m370 632 1 2-1.437 1.375c-1.653 1.558-1.653 1.558-2.563 3.625h-6c2.623-2.915 5.718-4.885 9-7"/><path fill="#2d2d2d" d="m501 457 2 1-1 4-5 1-1-4c2.375-1.062 2.375-1.062 5-2"/><path fill="#393939" d="m325 672 2 2c-.125 2-.125 2-1 4-2.062 1.25-2.062 1.25-4 2 1.875-5.75 1.875-5.75 3-8"/><path fill="#1e1e1e" d="M358 640c0 3.106-.54 4.353-2 7h-2c.313-2.375.313-2.375 1-5zM461 361l2 4-3 3-1-6z"/></svg>
